<svg width="211" height="251" viewBox="0 0 211 251" fill="none" xmlns="http://www.w3.org/2000/svg">
<path d="M32.219 19.4074C32.219 15.2209 35.0719 11.8271 38.5912 11.8271C38.5912 11.8271 109.991 11.8271 118.245 11.8271C125.188 11.8271 129.469 17.1926 130.653 18.8954C130.885 19.2294 131.119 19.5615 131.376 19.868L172.392 68.6597C172.403 68.6727 172.413 68.6837 172.424 68.6967C172.762 69.099 178.781 76.3659 178.781 83.8398C178.781 91.5296 178.781 231.655 178.781 231.655C178.781 235.842 175.928 239.235 172.409 239.235H38.5912C35.0719 239.235 32.219 235.842 32.219 231.655V19.4074Z" fill="#585858"/>
<path d="M173.541 67.6948L173.541 67.6945L132.525 18.9028C132.317 18.6556 132.119 18.3764 131.884 18.0392C130.655 16.2703 125.982 10.3271 118.245 10.3271H118.195H118.145H118.093H118.04H117.985H117.929H117.871H117.812H117.752H117.69H117.627H117.562H117.496H117.429H117.36H117.29H117.219H117.146H117.072H116.996H116.92H116.842H116.762H116.682H116.6H116.516H116.432H116.346H116.259H116.17H116.081H115.99H115.898H115.804H115.71H115.614H115.517H115.418H115.319H115.218H115.116H115.013H114.909H114.803H114.696H114.588H114.479H114.369H114.258H114.145H114.032H113.917H113.801H113.684H113.566H113.446H113.326H113.204H113.082H112.958H112.833H112.707H112.58H112.452H112.323H112.193H112.062H111.93H111.797H111.662H111.527H111.391H111.253H111.115H110.976H110.835H110.694H110.552H110.408H110.264H110.119H109.973H109.826H109.677H109.528H109.379H109.228H109.076H108.923H108.769H108.615H108.46H108.303H108.146H107.988H107.829H107.669H107.508H107.347H107.185H107.021H106.857H106.692H106.527H106.36H106.193H106.024H105.855H105.686H105.515H105.344H105.172H104.999H104.825H104.651H104.476H104.3H104.123H103.946H103.767H103.589H103.409H103.229H103.048H102.866H102.684H102.501H102.317H102.132H101.947H101.762H101.575H101.388H101.2H101.012H100.823H100.633H100.443H100.252H100.061H99.8689H99.6762H99.4829H99.2891H99.0947H98.8997H98.7042H98.508H98.3114H98.1142H97.9164H97.7181H97.5193H97.3199H97.12H96.9197H96.7188H96.5174H96.3155H96.1131H95.9102H95.7069H95.5031H95.2988H95.0941H94.8889H94.6833H94.4772H94.2707H94.0637H93.8564H93.6486H93.4404H93.2318H93.0228H92.8134H92.6037H92.3935H92.183H91.9721H91.7608H91.5492H91.3373H91.125H90.9123H90.6993H90.486H90.2724H90.0584H89.8442H89.6296H89.4148H89.1997H88.9842H88.7685H88.5526H88.3363H88.1198H87.903H87.686H87.4688H87.2513H87.0336H86.8157H86.5975H86.3791H86.1606H85.9418H85.7228H85.5036H85.2843H85.0648H84.8451H84.6253H84.4052H84.1851H83.9648H83.7443H83.5237H83.303H83.0822H82.8613H82.6402H82.419H82.1978H81.9764H81.755H81.5335H81.3119H81.0902H80.8685H80.6467H80.4249H80.203H79.9811H79.7592H79.5372H79.3152H79.0932H78.8712H78.6492H78.4272H78.2052H77.9832H77.7612H77.5393H77.3174H77.0956H76.8738H76.652H76.4303H76.2087H75.9871H75.7656H75.5442H75.3229H75.1017H74.8806H74.6595H74.4386H74.2179H73.9972H73.7767H73.5563H73.336H73.1159H72.896H72.6762H72.4566H72.2371H72.0179H71.7988H71.5799H71.3612H71.1427H70.9244H70.7063H70.4885H70.2709H70.0535H69.8363H69.6194H69.4028H69.1864H68.9702H68.7544H68.5388H68.3235H68.1085H67.8937H67.6793H67.4652H67.2514H67.0379H66.8247H66.6118H66.3993H66.1872H65.9753H65.7639H65.5527H65.342H65.1316H64.9216H64.712H64.5028H64.294H64.0855H63.8775H63.6699H63.4627H63.256H63.0496H62.8437H62.6383H62.4333H62.2287H62.0246H61.821H61.6179H61.4152H61.213H61.0113H60.8101H60.6095H60.4093H60.2096H60.0105H59.8119H59.6138H59.4162H59.2192H59.0228H58.8269H58.6316H58.4368H58.2427H58.0491H57.8561H57.6636H57.4718H57.2806H57.09H56.9H56.7107H56.522H56.3339H56.1464H55.9596H55.7735H55.588H55.4032H55.219H55.0355H54.8528H54.6707H54.4893H54.3086H54.1286H53.9493H53.7707H53.5929H53.4158H53.2394H53.0638H52.8889H52.7148H52.5415H52.3689H52.1971H52.0261H51.8558H51.6864H51.5177H51.3499H51.1828H51.0166H50.8512H50.6867H50.5229H50.36H50.198H50.0368H49.8764H49.717H49.5584H49.4006H49.2438H49.0878H48.9328H48.7786H48.6254H48.473H48.3216H48.1711H48.0215H47.8729H47.7252H47.5785H47.4327H47.2878H47.144H47.0011H46.8592H46.7183H46.5783H46.4394H46.3015H46.1645H46.0286H45.8937H45.7599H45.627H45.4952H45.3645H45.2348H45.1062H44.9786H44.8521H44.7266H44.6023H44.479H44.3569H44.2358H44.1158H43.997H43.8792H43.7626H43.6471H43.5328H43.4195H43.3075H43.1966H43.0868H42.9782H42.8708H42.7646H42.6595H42.5556H42.453H42.3515H42.2512H42.1522H42.0543H41.9577H41.8624H41.7682H41.6753H41.5837H41.4933H41.4042H41.3163H41.2297H41.1444H41.0604H40.9776H40.8962H40.8161H40.7373H40.6597H40.5836H40.5087H40.4352H40.363H40.2922H40.2227H40.1545H40.0878H40.0224H39.9583H39.8957H39.8345H39.7746H39.7161H39.6591H39.6034H39.5492H39.4964H39.445H39.3951H39.3466H39.2996H39.254H39.2098H39.1672H39.126H39.0863H39.048H39.0113H38.976H38.9423H38.9101H38.8793H38.8501H38.8225H38.7963H38.7717H38.7486H38.7271H38.7072H38.6888H38.6719H38.6567H38.643H38.6309H38.6204H38.6115H38.6042H38.5986H38.5945H38.5921C38.5915 10.3271 38.5912 10.3271 38.5912 11.8271V10.3271C34.0101 10.3271 30.719 14.647 30.719 19.4074V231.655C30.719 236.416 34.0101 240.735 38.5912 240.735H172.409C176.99 240.735 180.281 236.416 180.281 231.655H178.781C180.281 231.655 180.281 231.655 180.281 231.654V231.649V231.641V231.63V231.615V231.598V231.577V231.554V231.527V231.497V231.464V231.428V231.389V231.346V231.301V231.253V231.202V231.147V231.09V231.03V230.967V230.901V230.832V230.76V230.685V230.607V230.526V230.443V230.356V230.267V230.175V230.08V229.982V229.881V229.778V229.672V229.563V229.451V229.337V229.219V229.099V228.977V228.852V228.724V228.593V228.46V228.324V228.185V228.044V227.9V227.754V227.605V227.453V227.299V227.142V226.983V226.821V226.657V226.49V226.321V226.149V225.975V225.798V225.619V225.438V225.254V225.067V224.879V224.688V224.494V224.298V224.1V223.9V223.697V223.492V223.284V223.074V222.863V222.648V222.432V222.213V221.992V221.769V221.544V221.316V221.087V220.855V220.621V220.385V220.146V219.906V219.664V219.419V219.172V218.924V218.673V218.42V218.165V217.909V217.65V217.389V217.126V216.862V216.595V216.326V216.056V215.783V215.509V215.233V214.954V214.674V214.393V214.109V213.823V213.536V213.247V212.956V212.663V212.369V212.072V211.774V211.475V211.173V210.87V210.565V210.259V209.95V209.64V209.329V209.016V208.701V208.385V208.067V207.747V207.426V207.103V206.779V206.453V206.126V205.797V205.466V205.135V204.801V204.466V204.13V203.793V203.453V203.113V202.771V202.428V202.083V201.737V201.39V201.041V200.691V200.339V199.987V199.633V199.277V198.921V198.563V198.204V197.843V197.482V197.119V196.755V196.39V196.024V195.656V195.288V194.918V194.547V194.175V193.802V193.428V193.053V192.677V192.299V191.921V191.542V191.161V190.78V190.397V190.014V189.63V189.244V188.858V188.471V188.083V187.694V187.304V186.913V186.521V186.129V185.736V185.341V184.946V184.551V184.154V183.757V183.359V182.96V182.56V182.16V181.759V181.357V180.954V180.551V180.147V179.743V179.337V178.932V178.525V178.118V177.711V177.302V176.894V176.484V176.074V175.664V175.253V174.841V174.429V174.017V173.604V173.19V172.777V172.362V171.947V171.532V171.117V170.701V170.284V169.868V169.451V169.033V168.615V168.197V167.779V167.36V166.941V166.522V166.103V165.683V165.263V164.843V164.422V164.002V163.581V163.16V162.739V162.317V161.896V161.475V161.053V160.631V160.209V159.787V159.365V158.943V158.521V158.099V157.677V157.255V156.833V156.411V155.989V155.567V155.145V154.723V154.301V153.88V153.458V153.037V152.615V152.194V151.773V151.352V150.931V150.511V150.091V149.671V149.251V148.831V148.412V147.993V147.574V147.155V146.737V146.319V145.902V145.484V145.068V144.651V144.235V143.819V143.404V142.989V142.574V142.16V141.747V141.333V140.921V140.509V140.097V139.686V139.275V138.865V138.455V138.046V137.638V137.23V136.822V136.416V136.01V135.604V135.199V134.795V134.392V133.989V133.587V133.185V132.785V132.385V131.985V131.587V131.189V130.792V130.396V130.001V129.606V129.213V128.82V128.428V128.036V127.646V127.257V126.868V126.481V126.094V125.708V125.324V124.94V124.557V124.175V123.794V123.414V123.035V122.658V122.281V121.905V121.531V121.157V120.785V120.413V120.043V119.674V119.306V118.939V118.574V118.209V117.846V117.484V117.123V116.763V116.405V116.048V115.692V115.337V114.984V114.632V114.281V113.932V113.584V113.237V112.892V112.548V112.206V111.864V111.525V111.186V110.849V110.514V110.18V109.848V109.517V109.187V108.859V108.533V108.208V107.884V107.562V107.242V106.923V106.606V106.291V105.977V105.665V105.354V105.045V104.738V104.432V104.128V103.826V103.525V103.227V102.93V102.634V102.341V102.049V101.759V101.471V101.185V100.9V100.617V100.336V100.057V99.7804V99.5052V99.2318V98.9604V98.6909V98.4234V98.1578V97.8941V97.6325V97.3728V97.1151V96.8594V96.6057V96.3541V96.1045V95.857V95.6115V95.3681V95.1268V94.8876V94.6506V94.4156V94.1828V93.9522V93.7237V93.4974V93.2733V93.0514V92.8317V92.6143V92.399V92.1861V91.9753V91.7669V91.5608V91.3569V91.1554V90.9562V90.7593V90.5648V90.3726V90.1828V89.9954V89.8104V89.6278V89.4476V89.2699V89.0946V88.9218V88.7514V88.5835V88.4181V88.2553V88.0949V87.9371V87.7818V87.6291V87.4789V87.3313V87.1863V87.0439V86.9042V86.767V86.6325V86.5007V86.3715V86.245V86.1212V86.0001V85.8817V85.7661V85.6531V85.543V85.4355V85.3309V85.2291V85.13V85.0338V84.9404V84.8498V84.7621V84.6772V84.5952V84.5161V84.4399V84.3666V84.2962V84.2287V84.1642V84.1027V84.0441V83.9885V83.9359V83.8863V83.8398C180.281 79.733 178.64 75.7838 177.042 72.8912C175.431 69.9738 173.776 67.974 173.572 67.7316L173.571 67.7311L173.541 67.6948Z" stroke="black" stroke-opacity="0.2" stroke-width="3"/>
<path d="M124.545 13.4127V68.6536C124.545 72.853 127.387 76.2342 130.918 76.2342H177.005C175.966 73.7373 174.463 71.1088 172.4 68.6536L130.98 19.382C128.974 16.3625 126.743 14.5348 124.608 13.4156L124.545 13.4127Z" fill="#7B7B7B"/>
<path d="M130.918 87.6047C122.108 87.6047 114.987 79.1325 114.987 68.6536V11.7646L118.245 11.825C121.745 11.825 124.545 13.4127 124.545 13.4127V68.6536C124.545 72.8531 127.387 76.2342 130.918 76.2342H177.005C177.005 76.2342 178.781 80.0475 178.781 83.8377V87.6047H130.918Z" fill="#7B7B7B"/>
<mask id="path-5-outside-1_4_14" maskUnits="userSpaceOnUse" x="51.75" y="81.3594" width="110" height="128" fill="black">
<rect fill="white" x="51.75" y="81.3594" width="110" height="128"/>
<path d="M87.7164 155.604C91.0018 147.944 94.7357 139.314 97.7243 130.648L98.906 127.227C95.0024 109.557 92.6616 95.3725 94.7528 86.2014C95.3158 83.8103 97.6438 82.3594 100.133 82.3594L101.65 82.3861H101.928C105.336 82.3238 106.94 87.4803 107.122 89.4851C107.423 92.8241 106.124 98.4748 106.124 98.4748C106.124 96.1929 106.199 92.5058 104.989 89.324C103.58 85.6424 102.233 83.4431 101.027 83.0945C100.417 83.5786 99.825 84.5812 99.622 86.5099C99.2018 89.214 99.0758 92.6274 99.0758 94.3869C99.0758 100.604 100.105 108.809 102.127 117.268C102.508 115.958 102.844 114.7 103.111 113.521C103.526 111.663 106.162 99.3458 106.162 99.3458C106.162 99.3458 105.498 115.742 104.57 120.703C104.371 121.751 104.151 122.788 103.923 123.849C107.258 134.933 112.631 144.824 119.041 151.944C121.568 154.753 124.76 157.019 127.78 159.084C134.378 157.962 140.452 157.433 145.519 157.499C152.242 157.605 157.177 158.788 159.174 161.129C160.153 162.267 160.55 163.642 160.673 165.183C160.702 165.782 160.457 167.191 160.385 167.544C160.457 167.116 160.457 165.012 155.06 162.963C150.81 161.346 142.855 161.397 133.31 162.605C144.35 169.031 155.106 172.223 158.516 170.309C159.349 169.826 160.36 168.179 160.36 168.179C160.36 168.179 159.759 171.426 159.328 172.238C158.777 173.12 157.697 174.076 156.673 174.398C151.29 176.106 137.276 172.153 125.06 163.849C111.411 166.24 96.4221 170.657 84.406 175.345C72.5989 199.961 63.7222 211.265 56.5012 206.965L53.8462 205.377C52.767 204.642 52.6023 202.855 52.8519 201.399C53.6938 196.499 58.859 189.119 69.2342 181.749C70.3509 180.946 75.3255 177.817 75.3255 177.817C75.3255 177.817 71.6427 182.057 70.7799 182.889C62.4987 190.962 56.3864 201.119 56.5397 205.056L56.5696 205.399C63.6042 204.206 74.1531 187.174 87.7155 155.607L87.7164 155.604ZM92.0135 158.224C89.7483 163.3 87.5341 168.005 85.4899 172.326C96.7976 166.69 108.967 163.083 120.554 160.521C118.997 159.242 117.485 157.888 116.063 156.456C109.683 150.031 104.819 142.015 101.293 133.58C99.057 140.746 96.3983 148.36 92.0134 158.225"/>
</mask>
<path d="M87.7164 155.604C91.0018 147.944 94.7357 139.314 97.7243 130.648L98.906 127.227C95.0024 109.557 92.6616 95.3725 94.7528 86.2014C95.3158 83.8103 97.6438 82.3594 100.133 82.3594L101.65 82.3861H101.928C105.336 82.3238 106.94 87.4803 107.122 89.4851C107.423 92.8241 106.124 98.4748 106.124 98.4748C106.124 96.1929 106.199 92.5058 104.989 89.324C103.58 85.6424 102.233 83.4431 101.027 83.0945C100.417 83.5786 99.825 84.5812 99.622 86.5099C99.2018 89.214 99.0758 92.6274 99.0758 94.3869C99.0758 100.604 100.105 108.809 102.127 117.268C102.508 115.958 102.844 114.7 103.111 113.521C103.526 111.663 106.162 99.3458 106.162 99.3458C106.162 99.3458 105.498 115.742 104.57 120.703C104.371 121.751 104.151 122.788 103.923 123.849C107.258 134.933 112.631 144.824 119.041 151.944C121.568 154.753 124.76 157.019 127.78 159.084C134.378 157.962 140.452 157.433 145.519 157.499C152.242 157.605 157.177 158.788 159.174 161.129C160.153 162.267 160.55 163.642 160.673 165.183C160.702 165.782 160.457 167.191 160.385 167.544C160.457 167.116 160.457 165.012 155.06 162.963C150.81 161.346 142.855 161.397 133.31 162.605C144.35 169.031 155.106 172.223 158.516 170.309C159.349 169.826 160.36 168.179 160.36 168.179C160.36 168.179 159.759 171.426 159.328 172.238C158.777 173.12 157.697 174.076 156.673 174.398C151.29 176.106 137.276 172.153 125.06 163.849C111.411 166.24 96.4221 170.657 84.406 175.345C72.5989 199.961 63.7222 211.265 56.5012 206.965L53.8462 205.377C52.767 204.642 52.6023 202.855 52.8519 201.399C53.6938 196.499 58.859 189.119 69.2342 181.749C70.3509 180.946 75.3255 177.817 75.3255 177.817C75.3255 177.817 71.6427 182.057 70.7799 182.889C62.4987 190.962 56.3864 201.119 56.5397 205.056L56.5696 205.399C63.6042 204.206 74.1531 187.174 87.7155 155.607L87.7164 155.604ZM92.0135 158.224C89.7483 163.3 87.5341 168.005 85.4899 172.326C96.7976 166.69 108.967 163.083 120.554 160.521C118.997 159.242 117.485 157.888 116.063 156.456C109.683 150.031 104.819 142.015 101.293 133.58C99.057 140.746 96.3983 148.36 92.0134 158.225" fill="#E0E0E0"/>
<path d="M87.7164 155.604L87.2569 155.407L87.2517 155.419L87.2472 155.431L87.7164 155.604ZM97.7243 130.648L97.2517 130.485L97.2517 130.485L97.7243 130.648ZM98.906 127.227L99.3786 127.391L99.4247 127.257L99.3942 127.119L98.906 127.227ZM94.7528 86.2014L94.2661 86.0868L94.2653 86.0902L94.7528 86.2014ZM100.133 82.3594L100.142 81.8594H100.133V82.3594ZM101.65 82.3861L101.641 82.8861H101.65V82.3861ZM101.928 82.3861V82.8861L101.937 82.886L101.928 82.3861ZM107.122 89.4851L107.62 89.4403L107.62 89.4399L107.122 89.4851ZM106.124 98.4748H105.624L106.612 98.5868L106.124 98.4748ZM104.989 89.324L105.456 89.1463L105.456 89.1453L104.989 89.324ZM101.027 83.0945L101.165 82.6141L100.918 82.5425L100.716 82.703L101.027 83.0945ZM99.622 86.5099L100.116 86.5866L100.118 86.5744L100.119 86.5622L99.622 86.5099ZM102.127 117.268L101.641 117.384L102.079 119.219L102.607 117.408L102.127 117.268ZM103.111 113.521L103.599 113.631L103.599 113.63L103.111 113.521ZM106.162 99.3458L106.661 99.366L105.673 99.2412L106.162 99.3458ZM104.57 120.703L105.061 120.796L105.061 120.795L104.57 120.703ZM103.923 123.849L103.434 123.744L103.407 123.87L103.444 123.993L103.923 123.849ZM119.041 151.944L119.412 151.609L119.412 151.609L119.041 151.944ZM127.78 159.084L127.498 159.496L127.665 159.61L127.864 159.577L127.78 159.084ZM145.519 157.499L145.526 156.999L145.525 156.999L145.519 157.499ZM159.174 161.129L158.794 161.454L158.795 161.455L159.174 161.129ZM160.673 165.183L161.173 165.159L161.172 165.151L161.172 165.143L160.673 165.183ZM160.385 167.544L159.892 167.461L160.875 167.644L160.385 167.544ZM155.06 162.963L154.882 163.43L154.883 163.43L155.06 162.963ZM133.31 162.605L133.247 162.109L131.782 162.295L133.058 163.037L133.31 162.605ZM158.516 170.309L158.76 170.745L158.766 170.742L158.516 170.309ZM160.36 168.179L160.851 168.27L159.934 167.917L160.36 168.179ZM159.328 172.238L159.752 172.503L159.761 172.488L159.769 172.473L159.328 172.238ZM156.673 174.398L156.523 173.921L156.522 173.921L156.673 174.398ZM125.06 163.849L125.341 163.435L125.173 163.321L124.973 163.356L125.06 163.849ZM84.406 175.345L84.2243 174.88L84.0405 174.951L83.9552 175.129L84.406 175.345ZM56.5012 206.965L56.2445 207.394L56.2453 207.394L56.5012 206.965ZM53.8462 205.377L53.565 205.79L53.577 205.798L53.5896 205.806L53.8462 205.377ZM52.8519 201.399L52.3591 201.314L52.3591 201.315L52.8519 201.399ZM69.2342 181.749L69.5237 182.157L69.5263 182.155L69.2342 181.749ZM75.3255 177.817L75.703 178.145L75.0593 177.394L75.3255 177.817ZM70.7799 182.889L70.4328 182.529L70.4309 182.531L70.7799 182.889ZM56.5397 205.056L56.04 205.075L56.0405 205.087L56.0415 205.099L56.5397 205.056ZM56.5696 205.399L56.0715 205.442L56.1185 205.982L56.6531 205.892L56.5696 205.399ZM87.7155 155.607L88.1749 155.804L88.1801 155.792L88.1847 155.779L87.7155 155.607ZM85.4899 172.326L85.0379 172.112L84.4202 173.417L85.7129 172.773L85.4899 172.326ZM120.554 160.521L120.661 161.009L121.665 160.788L120.871 160.135L120.554 160.521ZM116.063 156.456L115.708 156.809L115.708 156.809L116.063 156.456ZM101.293 133.58L101.754 133.387L101.225 132.12L100.816 133.431L101.293 133.58ZM88.1759 155.801C91.4596 148.145 95.2013 139.497 98.197 130.811L97.2517 130.485C94.2701 139.13 90.5441 147.742 87.2569 155.407L88.1759 155.801ZM98.1969 130.811L99.3786 127.391L98.4334 127.064L97.2517 130.485L98.1969 130.811ZM99.3942 127.119C97.4433 118.288 95.8866 110.344 95.0779 103.469C94.2684 96.5865 94.2137 90.8148 95.2403 86.3125L94.2653 86.0902C93.2007 90.759 93.2708 96.665 94.0848 103.585C94.8996 110.512 96.4651 118.496 98.4178 127.335L99.3942 127.119ZM95.2395 86.316C95.7366 84.2046 97.8155 82.8594 100.133 82.8594V81.8594C97.4722 81.8594 94.8949 83.416 94.2661 86.0868L95.2395 86.316ZM100.124 82.8593L101.641 82.886L101.658 81.8861L100.142 81.8595L100.124 82.8593ZM101.65 82.8861H101.928V81.8861H101.65V82.8861ZM101.937 82.886C103.353 82.8601 104.473 83.917 105.298 85.403C106.111 86.8699 106.539 88.5923 106.624 89.5304L107.62 89.4399C107.523 88.3731 107.058 86.5149 106.172 84.9179C105.297 83.34 103.91 81.8498 101.919 81.8861L101.937 82.886ZM106.624 89.53C106.769 91.1334 106.529 93.3284 106.242 95.1546C106.1 96.0609 105.948 96.8643 105.832 97.4411C105.774 97.7294 105.725 97.9607 105.691 98.1195C105.674 98.1989 105.66 98.2602 105.651 98.3014C105.646 98.322 105.643 98.3376 105.641 98.3479C105.639 98.353 105.639 98.3569 105.638 98.3594C105.638 98.3606 105.637 98.3615 105.637 98.3621C105.637 98.3624 105.637 98.3626 105.637 98.3627C105.637 98.3628 105.637 98.3628 105.637 98.3628C105.637 98.3628 105.637 98.3628 106.124 98.4748C106.612 98.5868 106.612 98.5867 106.612 98.5866C106.612 98.5866 106.612 98.5865 106.612 98.5863C106.612 98.5861 106.612 98.5858 106.612 98.5854C106.612 98.5846 106.613 98.5834 106.613 98.582C106.614 98.579 106.615 98.5747 106.616 98.5691C106.618 98.5578 106.622 98.5412 106.627 98.5196C106.637 98.4764 106.651 98.413 106.668 98.3314C106.704 98.1682 106.754 97.932 106.813 97.6383C106.931 97.0512 107.085 96.2333 107.23 95.3095C107.518 93.4757 107.777 91.1758 107.62 89.4403L106.624 89.53ZM106.624 98.4748C106.624 96.2175 106.706 92.4306 105.456 89.1463L104.522 89.5018C105.693 92.581 105.624 96.1683 105.624 98.4748H106.624ZM105.456 89.1453C104.746 87.2907 104.043 85.7862 103.355 84.6929C103.01 84.146 102.662 83.6893 102.307 83.3407C101.955 82.9943 101.575 82.7324 101.165 82.6141L100.888 83.5748C101.082 83.6308 101.322 83.7745 101.606 84.0536C101.887 84.3305 102.19 84.7191 102.509 85.2258C103.147 86.2398 103.823 87.6758 104.522 89.5028L105.456 89.1453ZM100.716 82.703C99.9613 83.3022 99.3354 84.4564 99.1248 86.4575L100.119 86.5622C100.315 84.7061 100.873 83.8549 101.338 83.4859L100.716 82.703ZM99.1279 86.4331C98.7022 89.173 98.5758 92.6148 98.5758 94.3869H99.5758C99.5758 92.6399 99.7014 89.2551 100.116 86.5866L99.1279 86.4331ZM98.5758 94.3869C98.5758 100.651 99.6116 108.896 101.641 117.384L102.613 117.152C100.598 108.722 99.5758 100.556 99.5758 94.3869H98.5758ZM102.607 117.408C102.99 116.092 103.329 114.823 103.599 113.631L102.623 113.41C102.359 114.577 102.027 115.825 101.647 117.128L102.607 117.408ZM103.599 113.63C103.807 112.698 104.57 109.152 105.281 105.841C105.636 104.186 105.979 102.588 106.232 101.404C106.359 100.812 106.464 100.324 106.537 99.9834C106.573 99.8131 106.602 99.6799 106.621 99.5892C106.631 99.5439 106.638 99.5092 106.643 99.4858C106.646 99.4742 106.648 99.4653 106.649 99.4594C106.649 99.4564 106.65 99.4542 106.65 99.4527C106.65 99.4519 106.651 99.4514 106.651 99.451C106.651 99.4508 106.651 99.4507 106.651 99.4506C106.651 99.4505 106.651 99.4504 106.162 99.3458C105.673 99.2412 105.673 99.2412 105.673 99.2413C105.673 99.2414 105.673 99.2415 105.673 99.2417C105.673 99.2421 105.673 99.2426 105.672 99.2434C105.672 99.2449 105.672 99.2471 105.671 99.2501C105.67 99.256 105.668 99.2649 105.665 99.2765C105.66 99.2999 105.653 99.3346 105.643 99.3799C105.624 99.4706 105.595 99.6038 105.559 99.774C105.486 100.114 105.381 100.603 105.255 101.195C105.001 102.378 104.659 103.976 104.303 105.632C103.592 108.945 102.83 112.485 102.623 113.412L103.599 113.63ZM106.162 99.3458C105.662 99.3256 105.662 99.3256 105.662 99.3257C105.662 99.3258 105.662 99.326 105.662 99.3263C105.662 99.3267 105.662 99.3275 105.662 99.3285C105.662 99.3304 105.662 99.3334 105.662 99.3373C105.661 99.3451 105.661 99.3569 105.66 99.3724C105.659 99.4034 105.657 99.4496 105.655 99.5102C105.65 99.6312 105.642 99.8095 105.632 100.038C105.612 100.496 105.582 101.155 105.544 101.961C105.467 103.575 105.355 105.777 105.215 108.134C104.932 112.864 104.535 118.168 104.078 120.611L105.061 120.795C105.532 118.277 105.931 112.903 106.213 108.194C106.354 105.832 106.466 103.625 106.543 102.009C106.581 101.201 106.611 100.54 106.631 100.082C106.641 99.8525 106.649 99.6737 106.654 99.5521C106.656 99.4913 106.658 99.4449 106.659 99.4136C106.66 99.3979 106.661 99.3861 106.661 99.3781C106.661 99.3741 106.661 99.3711 106.661 99.3691C106.661 99.3681 106.661 99.3673 106.661 99.3668C106.661 99.3666 106.661 99.3664 106.661 99.3662C106.661 99.3661 106.661 99.366 106.162 99.3458ZM104.078 120.61C103.881 121.652 103.662 122.684 103.434 123.744L104.412 123.955C104.64 122.893 104.861 121.851 105.061 120.796L104.078 120.61ZM103.444 123.993C106.796 135.135 112.202 145.095 118.669 152.278L119.412 151.609C113.059 144.553 107.719 134.73 104.402 123.705L103.444 123.993ZM118.669 152.278C121.241 155.137 124.479 157.433 127.498 159.496L128.063 158.671C125.04 156.605 121.895 154.369 119.412 151.609L118.669 152.278ZM127.864 159.577C134.439 158.459 140.483 157.933 145.512 157.999L145.525 156.999C140.421 156.932 134.316 157.466 127.697 158.591L127.864 159.577ZM145.511 157.999C148.849 158.051 151.721 158.371 153.993 158.96C156.278 159.551 157.893 160.398 158.794 161.454L159.555 160.805C158.458 159.519 156.607 158.603 154.244 157.992C151.868 157.377 148.911 157.052 145.526 156.999L145.511 157.999ZM158.795 161.455C159.68 162.484 160.056 163.742 160.175 165.223L161.172 165.143C161.044 163.541 160.626 162.05 159.554 160.803L158.795 161.455ZM160.174 165.207C160.186 165.452 160.139 165.91 160.072 166.386C160.006 166.848 159.929 167.279 159.895 167.444L160.875 167.644C160.913 167.456 160.994 167.006 161.062 166.526C161.128 166.059 161.19 165.512 161.173 165.159L160.174 165.207ZM160.878 167.627C160.938 167.275 160.92 166.498 160.165 165.55C159.422 164.617 157.981 163.537 155.238 162.495L154.883 163.43C157.536 164.438 158.794 165.434 159.383 166.173C159.959 166.896 159.905 167.386 159.892 167.461L160.878 167.627ZM155.238 162.495C153.03 161.656 149.908 161.263 146.176 161.225C142.433 161.186 138.034 161.503 133.247 162.109L133.373 163.101C138.131 162.499 142.482 162.186 146.165 162.225C149.859 162.263 152.84 162.653 154.882 163.43L155.238 162.495ZM133.058 163.037C138.605 166.266 144.09 168.688 148.629 170.063C150.898 170.751 152.944 171.181 154.652 171.315C156.342 171.448 157.776 171.298 158.76 170.745L158.271 169.873C157.55 170.278 156.362 170.446 154.731 170.318C153.118 170.191 151.146 169.781 148.919 169.106C144.468 167.757 139.055 165.37 133.561 162.173L133.058 163.037ZM158.766 170.742C159.28 170.444 159.794 169.834 160.149 169.364C160.335 169.118 160.493 168.889 160.605 168.721C160.661 168.637 160.706 168.568 160.737 168.519C160.752 168.495 160.764 168.476 160.772 168.462C160.777 168.456 160.78 168.45 160.782 168.447C160.783 168.445 160.784 168.443 160.785 168.442C160.785 168.442 160.785 168.441 160.786 168.441C160.786 168.441 160.786 168.441 160.786 168.441C160.786 168.441 160.786 168.441 160.786 168.441C160.786 168.44 160.786 168.44 160.36 168.179C159.934 167.917 159.934 167.917 159.934 167.917C159.934 167.917 159.934 167.917 159.934 167.917C159.934 167.917 159.934 167.917 159.934 167.917C159.934 167.917 159.934 167.918 159.933 167.918C159.933 167.918 159.932 167.919 159.932 167.921C159.93 167.923 159.928 167.927 159.924 167.933C159.917 167.944 159.907 167.96 159.893 167.982C159.865 168.026 159.824 168.089 159.773 168.167C159.669 168.323 159.522 168.535 159.351 168.762C158.992 169.236 158.585 169.692 158.265 169.877L158.766 170.742ZM160.36 168.179C159.868 168.088 159.868 168.088 159.868 168.088C159.868 168.088 159.868 168.088 159.868 168.088C159.868 168.088 159.868 168.088 159.868 168.088C159.868 168.089 159.868 168.089 159.868 168.09C159.867 168.091 159.867 168.094 159.867 168.097C159.865 168.103 159.864 168.111 159.862 168.123C159.857 168.147 159.851 168.182 159.842 168.226C159.825 168.315 159.8 168.444 159.769 168.601C159.706 168.916 159.618 169.343 159.517 169.795C159.416 170.248 159.303 170.72 159.189 171.127C159.072 171.547 158.965 171.854 158.886 172.003L159.769 172.473C159.905 172.216 160.036 171.813 160.152 171.396C160.273 170.965 160.39 170.474 160.493 170.013C160.597 169.552 160.686 169.116 160.75 168.797C160.781 168.637 160.807 168.505 160.824 168.414C160.833 168.368 160.84 168.332 160.844 168.308C160.847 168.296 160.848 168.286 160.85 168.28C160.85 168.277 160.851 168.274 160.851 168.273C160.851 168.272 160.851 168.271 160.851 168.271C160.851 168.27 160.851 168.27 160.851 168.27C160.851 168.27 160.851 168.27 160.851 168.27C160.851 168.27 160.851 168.27 160.36 168.179ZM158.903 171.973C158.402 172.777 157.41 173.642 156.523 173.921L156.823 174.875C157.984 174.509 159.152 173.463 159.752 172.503L158.903 171.973ZM156.522 173.921C155.274 174.317 153.47 174.398 151.237 174.141C149.015 173.886 146.409 173.3 143.58 172.401C137.922 170.603 131.409 167.56 125.341 163.435L124.779 164.262C130.927 168.442 137.528 171.527 143.277 173.354C146.152 174.268 148.822 174.87 151.123 175.135C153.414 175.398 155.38 175.332 156.824 174.874L156.522 173.921ZM124.973 163.356C111.289 165.754 96.2674 170.181 84.2243 174.88L84.5878 175.811C96.5767 171.134 111.534 166.726 125.146 164.341L124.973 163.356ZM83.9552 175.129C78.0537 187.432 72.9061 196.361 68.3541 201.673C66.0768 204.331 63.9828 206.042 62.0564 206.838C60.1588 207.622 58.4168 207.523 56.757 206.535L56.2453 207.394C58.1961 208.556 60.2715 208.657 62.4382 207.762C64.5761 206.879 66.7931 205.032 69.1135 202.324C73.7569 196.905 78.9512 187.874 84.8569 175.562L83.9552 175.129ZM56.7578 206.536L54.1029 204.947L53.5896 205.806L56.2445 207.394L56.7578 206.536ZM54.1275 204.963C53.7381 204.698 53.4722 204.213 53.3409 203.56C53.2109 202.913 53.2277 202.166 53.3447 201.484L52.3591 201.315C52.2265 202.088 52.2008 202.962 52.3606 203.757C52.5191 204.545 52.8751 205.321 53.565 205.79L54.1275 204.963ZM53.3446 201.484C53.746 199.148 55.1941 196.155 57.859 192.812C60.5183 189.476 64.367 185.82 69.5237 182.157L68.9446 181.342C63.7261 185.048 59.8047 188.767 57.0771 192.188C54.3552 195.603 52.7997 198.75 52.3591 201.314L53.3446 201.484ZM69.5263 182.155C70.0704 181.764 71.5786 180.79 72.9676 179.903C73.6585 179.462 74.3146 179.046 74.798 178.741C75.0397 178.588 75.2382 178.463 75.3763 178.376C75.4453 178.332 75.4992 178.298 75.5358 178.275C75.5541 178.264 75.5681 178.255 75.5775 178.249C75.5823 178.246 75.5858 178.244 75.5882 178.242C75.5894 178.241 75.5903 178.241 75.5909 178.241C75.5912 178.24 75.5914 178.24 75.5915 178.24C75.5916 178.24 75.5917 178.24 75.5917 178.24C75.5917 178.24 75.5918 178.24 75.3255 177.817C75.0593 177.394 75.0593 177.394 75.0593 177.394C75.0592 177.394 75.0592 177.394 75.0591 177.394C75.0589 177.394 75.0587 177.394 75.0584 177.394C75.0578 177.394 75.0569 177.395 75.0557 177.396C75.0533 177.397 75.0497 177.4 75.0449 177.403C75.0355 177.409 75.0214 177.417 75.003 177.429C74.9662 177.452 74.9122 177.486 74.843 177.53C74.7046 177.617 74.5057 177.743 74.2636 177.896C73.7794 178.202 73.1221 178.618 72.4297 179.06C71.0522 179.939 69.5147 180.932 68.9421 181.344L69.5263 182.155ZM75.3255 177.817C74.9481 177.489 74.948 177.489 74.948 177.489C74.948 177.489 74.948 177.489 74.9479 177.489C74.9478 177.489 74.9476 177.489 74.9474 177.49C74.947 177.49 74.9463 177.491 74.9454 177.492C74.9437 177.494 74.941 177.497 74.9376 177.501C74.9306 177.509 74.9202 177.521 74.9067 177.536C74.8796 177.568 74.8397 177.614 74.7886 177.672C74.6863 177.79 74.5393 177.958 74.3601 178.163C74.0018 178.573 73.5151 179.129 73.0016 179.71C71.9659 180.882 70.8461 182.131 70.4328 182.529L71.1271 183.249C71.5766 182.815 72.7296 181.528 73.751 180.372C74.266 179.789 74.754 179.232 75.1131 178.821C75.2927 178.616 75.4401 178.447 75.5427 178.329C75.5939 178.27 75.634 178.224 75.6613 178.193C75.6749 178.177 75.6853 178.165 75.6923 178.157C75.6959 178.153 75.6985 178.15 75.7003 178.148C75.7012 178.147 75.7019 178.146 75.7023 178.145C75.7026 178.145 75.7027 178.145 75.7029 178.145C75.7029 178.145 75.703 178.145 75.703 178.145C75.703 178.145 75.703 178.145 75.3255 177.817ZM70.4309 182.531C66.2617 186.595 62.6385 191.183 60.0737 195.257C58.7914 197.293 57.7685 199.209 57.074 200.874C56.3859 202.523 55.9974 203.979 56.04 205.075L57.0393 205.036C57.0053 204.164 57.3233 202.873 57.9969 201.259C58.6643 199.659 59.6582 197.794 60.92 195.79C63.4433 191.782 67.0169 187.256 71.129 183.247L70.4309 182.531ZM56.0415 205.099L56.0715 205.442L57.0677 205.355L57.0378 205.012L56.0415 205.099ZM56.6531 205.892C58.571 205.567 60.6423 204.185 62.8555 201.903C65.0802 199.61 67.5036 196.349 70.1188 192.158C75.3505 183.773 81.39 171.596 88.1749 155.804L87.2561 155.409C80.4786 171.184 74.4625 183.307 69.2704 191.629C66.6739 195.79 64.2933 198.985 62.1378 201.207C59.9708 203.441 58.0854 204.635 56.486 204.906L56.6531 205.892ZM88.1847 155.779L88.1855 155.777L87.2472 155.431L87.2464 155.434L88.1847 155.779ZM91.5569 158.021C89.2941 163.09 87.0819 167.792 85.0379 172.112L85.9418 172.539C87.9863 168.218 90.2024 163.509 92.4701 158.428L91.5569 158.021ZM85.7129 172.773C96.9708 167.162 109.097 163.567 120.661 161.009L120.446 160.033C108.837 162.6 96.6245 166.217 85.2668 171.878L85.7129 172.773ZM120.871 160.135C119.325 158.865 117.826 157.522 116.418 156.104L115.708 156.809C117.144 158.254 118.668 159.62 120.236 160.908L120.871 160.135ZM116.418 156.104C110.094 149.735 105.262 141.778 101.754 133.387L100.832 133.773C104.376 142.252 109.273 150.327 115.708 156.809L116.418 156.104ZM100.816 133.431C98.5842 140.582 95.932 148.178 91.5565 158.022L92.4703 158.428C96.8645 148.542 99.5298 140.909 101.77 133.729L100.816 133.431Z" fill="#E0E0E0" mask="url(#path-5-outside-1_4_14)"/>
</svg>
